<svg width="59" height="59" viewBox="0 0 59 59" fill="none" xmlns="http://www.w3.org/2000/svg">
<circle cx="29.5" cy="29.5" r="29.1313" stroke="#A6A6A6" stroke-width="0.7375"/>
<g clip-path="url(#clip0_451_11456)">
<path d="M41 29C41 22.9249 36.0751 18 30 18C23.9249 18 19 22.9248 19 29C19 34.4904 23.0226 39.0412 28.2812 39.8664V32.1797H25.4883V29H28.2812V26.5766C28.2812 23.8197 29.9235 22.2969 32.4361 22.2969C33.6396 22.2969 34.8984 22.5117 34.8984 22.5117V25.2188H33.5114C32.1448 25.2188 31.7188 26.0667 31.7188 26.9366V29H34.7695L34.2818 32.1797H31.7188V39.8664C36.9774 39.0412 41 34.4905 41 29Z" fill="#1877F2"/>
<path d="M34.2818 32.1797L34.7695 29H31.7188V26.9366C31.7188 26.0666 32.1449 25.2188 33.5114 25.2188H34.8984V22.5117C34.8984 22.5117 33.6396 22.2969 32.4361 22.2969C29.9235 22.2969 28.2812 23.8197 28.2812 26.5766V29H25.4883V32.1797H28.2812V39.8664C28.8498 39.9555 29.4245 40.0002 30 40C30.5755 40.0002 31.1502 39.9555 31.7188 39.8664V32.1797H34.2818Z" fill="white"/>
</g>
<defs>
<clipPath id="clip0_451_11456">
<rect width="22" height="22" fill="white" transform="translate(19 18)"/>
</clipPath>
</defs>
</svg>
