<svg width="59" height="59" viewBox="0 0 59 59" fill="none" xmlns="http://www.w3.org/2000/svg">
<circle cx="29.5" cy="29.5" r="29.1313" stroke="#A6A6A6" stroke-width="0.7375"/>
<g clip-path="url(#clip0_451_11448)">
<path d="M24 37.5043V29.0042L21.3639 26.5926L19 25.2543V36.0043C19 36.8343 19.6725 37.5043 20.5 37.5043H24Z" fill="#4285F4"/>
<path d="M36 37.5044H39.5C40.33 37.5044 41 36.8318 41 36.0043V25.2544L38.3225 26.7873L36 29.0043V37.5044Z" fill="#34A853"/>
<path d="M24.0003 29.0039L23.6416 25.6826L24.0003 22.5039L30.0003 27.0039L36.0003 22.5039L36.4015 25.511L36.0003 29.0039L30.0003 33.5039L24.0003 29.0039Z" fill="#EA4335"/>
<path d="M36 22.5042V29.0042L41 25.2542V23.2542C41 21.3992 38.8825 20.3418 37.4001 21.4542L36 22.5042Z" fill="#FBBC04"/>
<path d="M19 25.2543L21.2996 26.979L24 29.0042V22.5043L22.5999 21.4543C21.1149 20.3417 19 21.3993 19 23.2542V25.2542V25.2543Z" fill="#C5221F"/>
</g>
<defs>
<clipPath id="clip0_451_11448">
<rect width="22" height="16.5859" fill="white" transform="translate(19 21)"/>
</clipPath>
</defs>
</svg>
